<svg width="35" height="30" viewBox="0 0 35 30" fill="none" xmlns="http://www.w3.org/2000/svg">
<g filter="url(#filter0_d_105_133)">
<path d="M24.2673 11.4551L26.4907 7.61258C26.684 7.238 26.539 6.77883 26.1765 6.5855C25.8261 6.40425 25.3911 6.513 25.1736 6.85133L22.9019 10.7663C19.4461 9.30425 15.5552 9.30425 12.0994 10.7663L9.82773 6.85133C9.59815 6.50091 9.1269 6.39216 8.77648 6.60966C8.43815 6.82716 8.3294 7.26216 8.51065 7.61258L10.734 11.4551C6.98815 13.5938 4.54732 17.4484 4.20898 21.7501H30.7923C30.454 17.4484 28.0132 13.5938 24.2673 11.4551ZM11.459 18.4272C10.6252 18.4272 9.94857 17.7505 9.94857 16.9167C9.94857 16.083 10.6252 15.4063 11.459 15.4063C12.2927 15.4063 12.9694 16.083 12.9694 16.9167C12.9694 17.7505 12.2927 18.4272 11.459 18.4272ZM23.5423 18.4272C22.7086 18.4272 22.0319 17.7505 22.0319 16.9167C22.0319 16.083 22.7086 15.4063 23.5423 15.4063C24.3761 15.4063 25.0527 16.083 25.0527 16.9167C25.0527 17.7505 24.3761 18.4272 23.5423 18.4272Z" fill="#425E7A"/>
</g>
<defs>
<filter id="filter0_d_105_133" x="-1" y="0" width="37" height="37" filterUnits="userSpaceOnUse" color-interpolation-filters="sRGB">
<feFlood flood-opacity="0" result="BackgroundImageFix"/>
<feColorMatrix in="SourceAlpha" type="matrix" values="0 0 0 0 0 0 0 0 0 0 0 0 0 0 0 0 0 0 127 0" result="hardAlpha"/>
<feOffset dy="4"/>
<feGaussianBlur stdDeviation="2"/>
<feComposite in2="hardAlpha" operator="out"/>
<feColorMatrix type="matrix" values="0 0 0 0 0 0 0 0 0 0 0 0 0 0 0 0 0 0 0.25 0"/>
<feBlend mode="normal" in2="BackgroundImageFix" result="effect1_dropShadow_105_133"/>
<feBlend mode="normal" in="SourceGraphic" in2="effect1_dropShadow_105_133" result="shape"/>
</filter>
</defs>
</svg>
