<svg width="28" height="28" viewBox="0 0 28 28" fill="none" xmlns="http://www.w3.org/2000/svg">
<path d="M20.9993 9.33341H19.8327V7.00008C19.8327 3.78008 17.2193 1.16675 13.9993 1.16675C10.7793 1.16675 8.16602 3.78008 8.16602 7.00008V9.33341H6.99935C5.71602 9.33341 4.66602 10.3834 4.66602 11.6667V23.3334C4.66602 24.6167 5.71602 25.6667 6.99935 25.6667H20.9993C22.2827 25.6667 23.3327 24.6167 23.3327 23.3334V11.6667C23.3327 10.3834 22.2827 9.33341 20.9993 9.33341ZM13.9993 19.8334C12.716 19.8334 11.666 18.7834 11.666 17.5001C11.666 16.2167 12.716 15.1667 13.9993 15.1667C15.2827 15.1667 16.3327 16.2167 16.3327 17.5001C16.3327 18.7834 15.2827 19.8334 13.9993 19.8334ZM17.616 9.33341H10.3827V7.00008C10.3827 5.00508 12.0043 3.38341 13.9993 3.38341C15.9943 3.38341 17.616 5.00508 17.616 7.00008V9.33341Z" fill="#425E7A"/>
</svg>
